<?xml version="1.0" encoding="UTF-8"?>
<svg version="1.1" xmlns="http://www.w3.org/2000/svg" width="454" height="455">
<path d="M0 0 C8.64041707 6.58317491 11.9181659 19.44843477 15.75 29.1875 C16.27876898 30.52522649 16.80774335 31.86287182 17.33691406 33.20043945 C18.13631618 35.2220132 18.93506988 37.24382922 19.73162842 39.26652527 C21.29385318 43.23084935 22.88393239 47.18221615 24.5 51.125 C32.28138783 70.24810421 39.72780719 90.23145238 41 111 C41.86061035 110.84152588 42.7212207 110.68305176 43.60791016 110.51977539 C46.86124907 110.02126103 49.98624806 109.79750626 53.2734375 109.68359375 C54.42714844 109.64169922 55.58085937 109.59980469 56.76953125 109.55664062 C57.95933594 109.51732422 59.14914063 109.47800781 60.375 109.4375 C61.58800781 109.39431641 62.80101562 109.35113281 64.05078125 109.30664062 C67.03375032 109.20094487 70.01679742 109.09884679 73 109 C75.76184353 103.73153523 77.9445948 98.64654676 79.6640625 92.9609375 C79.89768494 92.20979172 80.13130737 91.45864594 80.37200928 90.68473816 C80.87053968 89.08026716 81.36616065 87.47488966 81.85906982 85.86868286 C83.16649509 81.61202333 84.49874621 77.36312512 85.828125 73.11328125 C86.095112 72.2579631 86.362099 71.40264496 86.63717651 70.52140808 C104.62206069 13.00213768 104.62206069 13.00213768 117 4 C120.06429776 2.46785112 122.6165642 2.77061452 126 3 C134.55971322 6.66844852 138.6389768 15.85479919 142 24 C144.63729491 30.89827959 146.8208596 37.94666541 149 45 C149.53246338 46.70905518 149.53246338 46.70905518 150.07568359 48.45263672 C154.67300738 63.33549848 158.71769172 78.27096487 162 93.5 C162.14783936 94.17220581 162.29567871 94.84441162 162.44799805 95.5369873 C165.62107514 110.09144273 166.1949721 124.45702585 166.1875 139.3125 C166.18858765 140.31774216 166.18858765 140.31774216 166.18969727 141.34329224 C166.1885749 150.78335482 165.774444 160.0217701 164.4375 169.37109375 C163.67558521 175.6909048 163.86140876 181.28612832 165.4375 187.5 C168.40403269 200.73638634 168.31007186 212.71231394 166 226 C167.80017578 225.7834375 167.80017578 225.7834375 169.63671875 225.5625 C178.95825764 224.5022257 188.17581706 223.80593302 197.5625 223.8125 C198.4599292 223.81185547 199.3573584 223.81121094 200.28198242 223.81054688 C206.59211406 223.86403802 206.59211406 223.86403802 210 225 C209.67 226.65 209.34 228.3 209 230 C207.8346875 229.96519531 206.669375 229.93039063 205.46875 229.89453125 C195.52968209 229.6943331 185.81269454 230.12828561 175.9375 231.3125 C174.89722656 231.43020752 173.85695313 231.54791504 172.78515625 231.66918945 C171.81320312 231.79511475 170.84125 231.92104004 169.83984375 232.05078125 C168.97738037 232.16075439 168.11491699 232.27072754 167.22631836 232.3840332 C164.64496407 233.09822959 163.64339645 233.9135122 162 236 C161.00011074 238.49018012 161.00011074 238.49018012 160.3125 241.1875 C160.06113281 242.08855469 159.80976563 242.98960937 159.55078125 243.91796875 C159.36902344 244.60503906 159.18726563 245.29210937 159 246 C159.74121094 245.98839844 160.48242188 245.97679687 161.24609375 245.96484375 C198.84948051 245.64266051 198.84948051 245.64266051 212 254 C212.66 254.99 213.32 255.98 214 257 C213.67 257.33 213.34 257.66 213 258 C211.25 257.984375 211.25 257.984375 209 257.75 C207.9171875 257.64945312 207.9171875 257.64945312 206.8125 257.546875 C204.30564727 257.05943141 202.13369193 256.37677682 199.734375 255.52734375 C192.03892842 252.8917645 184.06282988 252.57749082 176 252 C174.61772217 251.87987549 174.61772217 251.87987549 173.20751953 251.75732422 C161.99755745 250.46424775 161.99755745 250.46424775 151.8984375 254.234375 C149.88700983 256.75043646 148.47440227 259.15390796 147 262 C147.65556885 262.17305664 148.3111377 262.34611328 148.98657227 262.52441406 C185.04788261 272.18318232 185.04788261 272.18318232 194 280 C194.78515625 282.203125 194.78515625 282.203125 195 284 C191.49982556 285.18721614 191.10386094 285.04871354 187.46875 283.34375 C186.77136719 282.96863281 186.07398438 282.59351563 185.35546875 282.20703125 C174.83995656 276.8184852 152.53435519 265.47752493 140.51953125 268.65625 C137.91624817 270.04466764 135.36608265 271.50749355 132.83398438 273.02172852 C123.32434549 278.68081696 113.45888484 282.46444219 103 286 C100.72520061 325.17710063 114.52549773 369.33924443 126.57324219 406.14331055 C128.4968562 412.12182798 130.08126887 418.10431838 131.375 424.25 C131.6083606 425.35686157 131.6083606 425.35686157 131.84643555 426.48608398 C132.9427164 432.0176326 133.43291509 437.32915089 134 443 C69.32 443 4.64 443 -62 443 C-62 437.51985675 -61.93007283 434.90327961 -60.3125 430.04296875 C-59.94761475 428.93928955 -59.58272949 427.83561035 -59.20678711 426.69848633 C-58.60942749 424.9605481 -58.60942749 424.9605481 -58 423.1875 C-57.59209229 421.98569092 -57.18418457 420.78388184 -56.76391602 419.5456543 C-53.38141505 409.75468706 -49.53343482 400.30960837 -45 391 C-44.55503174 390.08275146 -44.55503174 390.08275146 -44.10107422 389.14697266 C-41.27561163 383.36061208 -38.34478059 377.62757069 -35.41113281 371.89550781 C-28.67983755 358.72263766 -22.13777609 345.61914375 -16.859375 331.78125 C-15.2351827 327.52958463 -13.43894408 323.37012832 -11.60229492 319.20654297 C-8.01364565 311.06043699 -4.74231195 302.86685598 -1.875 294.4375 C-1.56747803 293.55070557 -1.25995605 292.66391113 -0.94311523 291.75024414 C-0.67055908 290.92387451 -0.39800293 290.09750488 -0.1171875 289.24609375 C0.12402832 288.52091553 0.36524414 287.7957373 0.61376953 287.04858398 C1.07066143 284.62520856 0.9627748 283.27138333 0 281 C-2.64619243 279.52624683 -5.1637986 278.3027689 -7.9375 277.125 C-13.90301238 274.50081974 -19.30626304 271.79486992 -24.53125 267.8359375 C-29.65304869 266.10165756 -34.4304213 268.29424096 -39.12744141 270.40625 C-42.0336951 271.84865964 -44.91349892 273.32875444 -47.77514648 274.85766602 C-49.55749725 275.80982745 -51.3470928 276.74697836 -53.13867188 277.68164062 C-58.07428868 280.28064198 -62.93889198 282.89416948 -67.62109375 285.9296875 C-71.17435183 288.10682829 -72.91986641 288.5100167 -77 288 C-76.48731341 283.46649487 -76.48731341 283.46649487 -74.35986328 281.42993164 C-73.64556152 280.99028076 -72.93125977 280.55062988 -72.1953125 280.09765625 C-71.38094727 279.59379395 -70.56658203 279.08993164 -69.72753906 278.57080078 C-63.79765984 275.15575935 -57.75968954 271.95809775 -51.70703125 268.76757812 C-46.17267611 265.81848749 -40.99374371 262.79835747 -36 259 C-37.93275543 256.31256004 -37.93275543 256.31256004 -41 254 C-49.69259848 253.0403076 -57.87034329 255.76534412 -66.1875 258 C-68.34654856 258.57581069 -70.5062893 259.14821518 -72.66853333 259.71191406 C-74.62251463 260.22182812 -76.57344553 260.74338976 -78.52416992 261.265625 C-81.80568819 261.95894571 -84.66006295 262.14350166 -88 262 C-88.33 260.35 -88.66 258.7 -89 257 C-75.07404155 253.02617852 -61.06132683 249.46179874 -47 246 C-48.65 242.7 -50.3 239.4 -52 236 C-64.86313895 235.81702825 -64.86313895 235.81702825 -77.67578125 236.77734375 C-82.10570215 237.20172273 -86.55477344 237.07605901 -91 237 C-91.38218767 235.34385343 -91.71395102 233.67542976 -92 232 C-89.80367686 229.80367686 -84.99491821 230.2876453 -81.9375 230 C-80.59703613 229.86972412 -80.59703613 229.86972412 -79.22949219 229.73681641 C-71.16238671 228.97309221 -63.09145025 228.42943451 -55 228 C-55.474375 226.80375 -55.94875 225.6075 -56.4375 224.375 C-59.82657328 215.23089663 -59.44929985 206.46587564 -58 196.9375 C-56.77083807 188.76357319 -56.84629803 181.93914067 -57.99609375 173.75 C-59.10636178 165.27731545 -59.36005237 156.91174201 -59.3125 148.375 C-59.30968018 147.63510834 -59.30686035 146.89521667 -59.30395508 146.13290405 C-59.13135133 115.78924568 -52.1064865 86.20456427 -41 58 C-40.56671387 56.89946289 -40.13342773 55.79892578 -39.68701172 54.66503906 C-19.45133367 3.74326841 -19.45133367 3.74326841 -9.51953125 -1.24609375 C-5.76673038 -2.36902486 -3.57630513 -1.46883961 0 0 Z M-21 178 C-23.98778881 183.97557762 -22.60757326 194.57311199 -21.45703125 201.0625 C-18.96388765 208.36635731 -13.06638705 215.28679873 -6.2512207 218.93652344 C-0.78139864 221.26939392 4.4279368 221.46654711 10.3125 221.375 C11.23804688 221.36629883 12.16359375 221.35759766 13.1171875 221.34863281 C21.04194104 221.17865744 28.08382047 220.4163661 34.9375 216.1875 C41.32630788 209.41149164 44.03315157 201.10549099 44.3125 191.8125 C43.80377414 185.26954189 43.80377414 185.26954189 42 179 C38.85069107 177.95023036 36.61185544 177.89868405 33.3125 177.9375 C32.31863281 177.94652344 31.32476562 177.95554688 30.30078125 177.96484375 C29.54152344 177.97644531 28.78226563 177.98804688 28 178 C28.495 179.485 28.495 179.485 29 181 C30.99608513 188.12272105 30.34538065 193.44305393 27 200 C26 201 26 201 23.6875 201.3125 C20.17929127 200.90456875 19.17131036 199.71413795 17 197 C15.98826202 193.96478606 15.83426486 191.80266921 15.8125 188.625 C15.79832031 187.68914062 15.78414062 186.75328125 15.76953125 185.7890625 C16.01331892 182.83881846 16.76887492 180.67635888 18 178 C16.15639063 176.15639063 13.57048982 176.86758676 11.1184082 176.86132812 C10.2955835 176.86583984 9.47275879 176.87035156 8.625 176.875 C7.36659302 176.87790039 7.36659302 176.87790039 6.08276367 176.88085938 C-2.96134859 176.94140573 -11.97547975 177.43407264 -21 178 Z M112 178 C112.33 178.86625 112.66 179.7325 113 180.625 C114.66238298 186.49152545 114.86338874 192.9928631 114 199 C112.19921875 201.41796875 112.19921875 201.41796875 110 203 C106.4375 203.125 106.4375 203.125 103 202 C98.99024031 197.0848107 99.4681725 191.03319064 100 185 C100.49550437 182.54365355 101.15798643 180.36816318 102 178 C96.66444505 177.7865778 91.93791838 177.65448877 87 180 C85.63672922 184.08981234 85.77614191 187.90349523 85.75 192.1875 C85.729375 193.01314453 85.70875 193.83878906 85.6875 194.68945312 C85.63593453 202.86902561 87.80870563 209.51088203 93 216 C99.01288085 221.09099751 103.81883059 222.21708364 111.6875 222.3125 C112.46544922 222.34150391 113.24339844 222.37050781 114.04492188 222.40039062 C121.06519535 222.47650702 126.02262756 220.50060365 131.390625 215.9921875 C138.79596958 207.56005145 141.62055203 200.35544098 141.2734375 189.07421875 C140.92684562 185.17753579 140.16975034 181.7285792 139 178 C129.79428877 176.92375819 121.18197591 176.66443987 112 178 Z M63 215 C62.67 216.32 62.34 217.64 62 219 C63.79090253 219.19466332 65.58276505 219.38051213 67.375 219.5625 C68.37273437 219.66691406 69.37046875 219.77132812 70.3984375 219.87890625 C72.984037 220.21144708 72.984037 220.21144708 75 219 C74.67 217.68 74.34 216.36 74 215 C70.37 215 66.74 215 63 215 Z " fill="#010001" transform="translate(170,12)"/>
<path d="M0 0 C1.11375 0.495 1.11375 0.495 2.25 1 C7.5121552 2.40324139 12.5857837 2.15769562 18 2 C18 2.33 18 2.66 18 3 C15.36 3 12.72 3 10 3 C10.495 3.86625 10.99 4.7325 11.5 5.625 C13.97931005 11.44184282 13.79008228 17.82230906 13 24 C11.69860219 27.03659489 11.04735412 27.37906696 8 29 C4.375 29.0625 4.375 29.0625 1 28 C-2.58750512 24.41249488 -3.16749041 20.67307245 -3.25 15.75 C-3.22328581 10.72105393 -2.35285852 7.41160973 0 3 C-2.31 3 -4.62 3 -7 3 C-7 2.67 -7 2.34 -7 2 C-3.535 1.505 -3.535 1.505 0 1 C0 0.67 0 0.34 0 0 Z " fill="#0E0B0D" transform="translate(272,187)"/>
<path d="M0 0 C0.33 0 0.66 0 1 0 C1 1.65 1 3.3 1 5 C1.74121094 4.98839844 2.48242188 4.97679687 3.24609375 4.96484375 C40.84948051 4.64266051 40.84948051 4.64266051 54 13 C54.99 14.485 54.99 14.485 56 16 C55.505 16.495 55.505 16.495 55 17 C53.25 16.984375 53.25 16.984375 51 16.75 C50.278125 16.68296875 49.55625 16.6159375 48.8125 16.546875 C46.30564727 16.05943141 44.13369193 15.37677682 41.734375 14.52734375 C37.24612257 12.99018215 32.96268528 12.24968626 28.25 11.8125 C27.04585449 11.70059326 27.04585449 11.70059326 25.81738281 11.58642578 C23.21285038 11.36528624 20.60782531 11.17793568 18 11 C16.60974609 10.89582764 16.60974609 10.89582764 15.19140625 10.78955078 C4.2403116 9.64214389 4.2403116 9.64214389 -5.87890625 12.7890625 C-7.63312603 14.79489764 -8.90317511 16.57942093 -10 19 C-12.475 18.01 -12.475 18.01 -15 17 C-15 16.34 -15 15.68 -15 15 C-13.35 15 -11.7 15 -10 15 C-10 13.68 -10 12.36 -10 11 C-8.02361137 8.33187535 -6.23087421 7.55704728 -3 7 C-3.33 5.68 -3.66 4.36 -4 3 C-2.68 3.33 -1.36 3.66 0 4 C0 2.68 0 1.36 0 0 Z " fill="#1C161A" transform="translate(328,253)"/>
<path d="M0 0 C0.53625 0.309375 1.0725 0.61875 1.625 0.9375 C4.3984957 2.17827439 7.00042837 2.5909675 10 3 C10 3.33 10 3.66 10 4 C7.36 4.33 4.72 4.66 2 5 C2.33 5.825 2.66 6.65 3 7.5 C5.0380403 14.63314104 4.34084467 19.57529872 1 26 C-1 28 -1 28 -3.3125 28.4375 C-7.14748684 27.81319982 -8.55451067 25.92100114 -11 23 C-13.14288655 16.57134036 -12.68159945 9.20119872 -10 3 C-9.01 3 -8.02 3 -7 3 C-6.67 3.33 -6.34 3.66 -6 4 C-5.67 3.01 -5.34 2.02 -5 1 C-3.35 1.33 -1.7 1.66 0 2 C0 1.34 0 0.68 0 0 Z " fill="#0A0809" transform="translate(197,186)"/>
<path d="M0 0 C0.66 0.33 1.32 0.66 2 1 C4.43259568 1.75319799 4.43259568 1.75319799 7 2 C7.99 1.34 8.98 0.68 10 0 C9.34 1.32 8.68 2.64 8 4 C8.66 4.66 9.32 5.32 10 6 C8.99259766 6.33257812 8.99259766 6.33257812 7.96484375 6.671875 C0.02452952 9.49965142 -7.34934153 13.0997635 -14.8125 17 C-15.79033447 17.51014648 -16.76816895 18.02029297 -17.77563477 18.54589844 C-22.77346399 21.18793019 -27.61627115 23.91899624 -32.30151367 27.08666992 C-34.87719487 28.47169556 -37.15754151 28.35530731 -40 28 C-39.4868351 23.46600909 -39.4868351 23.46600909 -37.36206055 21.43212891 C-36.29145386 20.77349854 -36.29145386 20.77349854 -35.19921875 20.1015625 C-34.38501465 19.59786133 -33.57081055 19.09416016 -32.73193359 18.57519531 C-27.81217881 15.73853241 -22.83134185 13.03185135 -17.8125 10.375 C-8.67774907 5.56640617 -8.67774907 5.56640617 0 0 Z " fill="#130E11" transform="translate(133,272)"/>
<path d="M0 0 C7.82634885 2.30985218 15.61222392 4.73493017 23.375 7.25 C24.51710938 7.60707031 25.65921875 7.96414063 26.8359375 8.33203125 C34.67000021 10.88700398 42.45056061 13.87732641 49 19 C49.82568359 21.21582031 49.82568359 21.21582031 50 23 C46.49982556 24.18721614 46.10386094 24.04871354 42.46875 22.34375 C41.77136719 21.96863281 41.07398438 21.59351563 40.35546875 21.20703125 C35.89857254 18.92314911 31.18489552 17.2538575 26.5 15.5 C25.45005859 15.10562744 24.40011719 14.71125488 23.31835938 14.30493164 C14.98887102 11.23741288 6.68585056 8.82658328 -2 7 C-1.34 6.67 -0.68 6.34 0 6 C0 5.34 0 4.68 0 4 C0.66 3.67 1.32 3.34 2 3 C1.34 2.01 0.68 1.02 0 0 Z " fill="#22191F" transform="translate(315,273)"/>
<path d="M0 0 C1.5 1.375 1.5 1.375 3 3 C3 3.66 3 4.32 3 5 C3.99 5.33 4.98 5.66 6 6 C6 6.66 6 7.32 6 8 C5.34 8.33 4.68 8.66 4 9 C4.66 9.66 5.32 10.32 6 11 C5.03964844 11.14695312 4.07929687 11.29390625 3.08984375 11.4453125 C-6.83838143 13.0456059 -16.46902285 15.30679077 -26.15454102 18.01806641 C-30.88155723 19.31426938 -35.04460647 20.37477766 -40 20 C-40.33 18.35 -40.66 16.7 -41 15 C-27.07436173 11.02626989 -13.06209177 7.45733374 1 4 C0.505 2.02 0.505 2.02 0 0 Z " fill="#0D070C" transform="translate(122,254)"/>
<path d="M0 0 C0.89750977 -0.00056396 1.79501953 -0.00112793 2.71972656 -0.00170898 C6.2826593 0.02815375 9.02907646 0.05135882 12.4375 1.1875 C12.1075 2.8375 11.7775 4.4875 11.4375 6.1875 C10.2721875 6.15269531 9.106875 6.11789063 7.90625 6.08203125 C-2.03281791 5.8818331 -11.74980546 6.31578561 -21.625 7.5 C-23.18541016 7.67656128 -23.18541016 7.67656128 -24.77734375 7.85668945 C-25.74929688 7.98261475 -26.72125 8.10854004 -27.72265625 8.23828125 C-28.58511963 8.34825439 -29.44758301 8.45822754 -30.33618164 8.5715332 C-32.92343772 9.28736247 -33.91174771 10.09942036 -35.5625 12.1875 C-36.75277984 14.78665538 -36.75277984 14.78665538 -37.5625 17.1875 C-39.04650777 14.83054648 -39.57820001 13.50150019 -39.4375 10.6875 C-38.38038224 7.66716353 -36.91017136 6.32174669 -34.5625 4.1875 C-33.9025 3.1975 -33.2425 2.2075 -32.5625 1.1875 C-32.2325 1.5175 -31.9025 1.8475 -31.5625 2.1875 C-28.63514953 1.92109886 -25.73010317 1.60002521 -22.8125 1.25 C-15.1931715 0.40665248 -7.66628108 -0.01138822 0 0 Z M-37.5625 9.1875 C-37.8925 9.8475 -38.2225 10.5075 -38.5625 11.1875 C-37.9025 11.1875 -37.2425 11.1875 -36.5625 11.1875 C-36.8925 10.5275 -37.2225 9.8675 -37.5625 9.1875 Z " fill="#2A2026" transform="translate(367.5625,235.8125)"/>
<path d="M0 0 C0 0.33 0 0.66 0 1 C-4.29 1.66 -8.58 2.32 -13 3 C-12.67 3 -12.34 3 -12 3 C-11.01 3.33 -10.02 3.66 -9 4 C-6.26710707 4.22797562 -3.54957796 4.41668187 -0.8125 4.5625 C-0.06291016 4.60568359 0.68667969 4.64886719 1.45898438 4.69335938 C3.30578375 4.79922685 5.15286834 4.9000976 7 5 C6.67 5.66 6.34 6.32 6 7 C4.81664062 6.98839844 3.63328125 6.97679687 2.4140625 6.96484375 C-8.65318125 6.8892621 -8.65318125 6.8892621 -19.67578125 7.77734375 C-24.10570215 8.20172273 -28.55477344 8.07605901 -33 8 C-33.38218767 6.34385343 -33.71395102 4.67542976 -34 3 C-31.73988756 0.73988756 -26.80293234 1.23420583 -23.75 0.9375 C-22.39793457 0.80335693 -22.39793457 0.80335693 -21.01855469 0.66650391 C-13.98446216 0.00776352 -7.06610738 -0.23209842 0 0 Z " fill="#1F171D" transform="translate(112,241)"/>
<path d="M0 0 C13.14071578 -0.46077835 27.49620353 -0.31082393 39 7 C39.66 7.99 40.32 8.98 41 10 C40.67 10.33 40.34 10.66 40 11 C38.25 10.984375 38.25 10.984375 36 10.75 C35.278125 10.68296875 34.55625 10.6159375 33.8125 10.546875 C31.32155556 10.06252469 29.19463008 9.38293865 26.81640625 8.52734375 C21.8918441 6.83340873 17.10685518 6.24962934 11.9375 5.8125 C10.6390918 5.6897168 10.6390918 5.6897168 9.31445312 5.56445312 C7.21050226 5.36684448 5.10535418 5.18204995 3 5 C3 4.67 3 4.34 3 4 C8.94 3.505 8.94 3.505 15 3 C11.83754459 1.9458482 9.13051782 1.68724328 5.8125 1.4375 C4.72582031 1.35371094 3.63914062 1.26992188 2.51953125 1.18359375 C1.68808594 1.12300781 0.85664063 1.06242187 0 1 C0 0.67 0 0.34 0 0 Z " fill="#2D2429" transform="translate(343,259)"/>
<path d="M0 0 C0.66 0.33 1.32 0.66 2 1 C1.01 1.66 0.02 2.32 -1 3 C0.32 4.32 1.64 5.64 3 7 C0.80040031 8.34989131 -1.407838 9.6795172 -3.625 11 C-4.24246094 11.3815625 -4.85992187 11.763125 -5.49609375 12.15625 C-9.49608172 14.51413765 -12.2234906 15.47030246 -17 15 C-16.68157884 11.96472729 -16.47674535 10.43479995 -14.1796875 8.33984375 C-13.41914062 7.87707031 -12.65859375 7.41429687 -11.875 6.9375 C-11.06675781 6.43992187 -10.25851563 5.94234375 -9.42578125 5.4296875 C-8.62527344 4.95789063 -7.82476562 4.48609375 -7 4 C-6.31292969 3.56945312 -5.62585938 3.13890625 -4.91796875 2.6953125 C-3.32244849 1.72120539 -1.66516956 0.84957631 0 0 Z " fill="#1B1518" transform="translate(110,285)"/>
<path d="M0 0 C1.0625 1.8125 1.0625 1.8125 2 4 C1 7 1 7 -1 10 C-1.28947951 12.3199715 -1.37656001 14.60568395 -1.4609375 16.94140625 C-1.63882813 17.62074219 -1.81671875 18.30007812 -2 19 C-3.9765625 20.08984375 -3.9765625 20.08984375 -6 21 C-6.495 22.485 -6.495 22.485 -7 24 C-7.99 23.67 -8.98 23.34 -10 23 C-9.505 21.515 -9.505 21.515 -9 20 C-16.59 20 -24.18 20 -32 20 C-32 20.66 -32 21.32 -32 22 C-34.31 22.66 -36.62 23.32 -39 24 C-39.33 23.34 -39.66 22.68 -40 22 C-40.66 22 -41.32 22 -42 22 C-41.34 20.02 -40.68 18.04 -40 16 C-39.67 16.99 -39.34 17.98 -39 19 C-38.13938965 18.84152588 -37.2787793 18.68305176 -36.39208984 18.51977539 C-33.13875093 18.02126103 -30.01375194 17.79750626 -26.7265625 17.68359375 C-25.57285156 17.64169922 -24.41914063 17.59980469 -23.23046875 17.55664062 C-22.04066406 17.51732422 -20.85085937 17.47800781 -19.625 17.4375 C-18.41199219 17.39431641 -17.19898438 17.35113281 -15.94921875 17.30664062 C-12.96624968 17.20094487 -9.98320258 17.09884679 -7 17 C-4.8002188 12.74304046 -2.68361964 8.58758284 -1.25 4 C-1.00765625 3.236875 -0.7653125 2.47375 -0.515625 1.6875 C-0.34546875 1.130625 -0.1753125 0.57375 0 0 Z " fill="#1C1A1B" transform="translate(250,104)"/>
<path d="M0 0 C4.78382022 0.53791082 8.16059973 1.89788303 12.3125 4.3125 C13.36050781 4.90675781 14.40851563 5.50101562 15.48828125 6.11328125 C18 8 18 8 18.85546875 10.23046875 C18.90316406 10.81441406 18.95085937 11.39835937 19 12 C15.45858043 13.20907496 15.07375628 13.03433482 11.375 11.3125 C10.35019531 10.75755859 10.35019531 10.75755859 9.3046875 10.19140625 C5.33946869 8.14158975 1.16138216 6.60315542 -3 5 C-2.360625 4.690625 -1.72125 4.38125 -1.0625 4.0625 C0.93610821 3.1654837 0.93610821 3.1654837 2 2 C1.34 1.34 0.68 0.68 0 0 Z " fill="#2D252B" transform="translate(346,284)"/>
<path d="M0 0 C-0.33 0.66 -0.66 1.32 -1 2 C-11.71092709 2.15498126 -22.31485445 1.67842194 -33 1 C-33 0.34 -33 -0.32 -33 -1 C-24.44072721 -5.2796364 -9.17150624 -1.34981432 0 0 Z " fill="#080206" transform="translate(359,261)"/>
<path d="M0 0 C0.66 0.33 1.32 0.66 2 1 C4.43259568 1.75319799 4.43259568 1.75319799 7 2 C7.99 1.34 8.98 0.68 10 0 C9.34 1.32 8.68 2.64 8 4 C8.66 4.66 9.32 5.32 10 6 C8.25531628 6.70088156 6.50398839 7.38524009 4.75 8.0625 C3.77546875 8.44535156 2.8009375 8.82820313 1.796875 9.22265625 C-1.06553714 10.01821493 -2.2683021 9.99619258 -5 9 C-5.33 9 -5.66 9 -6 9 C-6.99 8.67 -7.98 8.34 -9 8 C-4.25 4 -4.25 4 -2 4 C-1.34 2.68 -0.68 1.36 0 0 Z " fill="#120E12" transform="translate(133,272)"/>
<path d="M0 0 C0.66 0.14179688 1.32 0.28359375 2 0.4296875 C6.02029414 1.19396217 9.91788001 1.14488045 14 1.125 C15.19109375 1.13080078 15.19109375 1.13080078 16.40625 1.13671875 C20.4029478 1.13005759 24.09947535 0.99085908 28 0 C27.67 0.66 27.34 1.32 27 2 C23.68455701 3.10514766 20.79589889 3.32107631 17.3125 3.5625 C16.13300781 3.64628906 14.95351563 3.73007813 13.73828125 3.81640625 C12.83464844 3.87699219 11.93101562 3.93757812 11 4 C11 4.66 11 5.32 11 6 C6.92630576 8.03684712 4.41062136 8.0257259 0 7 C-0.38133299 5.0085944 -0.71325582 3.00720923 -1 1 C-0.67 0.67 -0.34 0.34 0 0 Z " fill="#1F1B1F" transform="translate(268,232)"/>
<path d="M0 0 C0 1.65 0 3.3 0 5 C-4.29 5 -8.58 5 -13 5 C-12.34 4.34 -11.68 3.68 -11 3 C-17.27 2.67 -23.54 2.34 -30 2 C-30 1.67 -30 1.34 -30 1 C-29.39003174 0.97494385 -28.78006348 0.9498877 -28.15161133 0.92407227 C-25.37172102 0.8075942 -22.5921266 0.68510368 -19.8125 0.5625 C-18.85279297 0.52318359 -17.89308594 0.48386719 -16.90429688 0.44335938 C-15.97294922 0.40146484 -15.04160156 0.35957031 -14.08203125 0.31640625 C-13.22843018 0.27974854 -12.3748291 0.24309082 -11.49536133 0.20532227 C-8.95560315 0.04638478 -8.95560315 0.04638478 -6.3269043 -0.54711914 C-3.83712776 -1.03169951 -2.38084813 -0.79361604 0 0 Z " fill="#252023" transform="translate(200,232)"/>
<path d="M0 0 C0.33 0 0.66 0 1 0 C1.21428767 7.70245115 0.95710672 14.53853064 -1 22 C-1 22.66 -1 23.32 -1 24 C-1.66 24 -2.32 24 -3 24 C-3 24.66 -3 25.32 -3 26 C-4.66666667 27.33333333 -6.33333333 28.66666667 -8 30 C-8 30.66 -8 31.32 -8 32 C-9.65 32.66 -11.3 33.32 -13 34 C-13.66 33.34 -14.32 32.68 -15 32 C-14.48050781 31.59910156 -13.96101563 31.19820312 -13.42578125 30.78515625 C-4.39909738 23.42699065 -1.64616455 16.55086799 -0.45556641 5.23266602 C-0.29067045 3.48962849 -0.14344852 1.74493353 0 0 Z " fill="#262024" transform="translate(311,199)"/>
<path d="M0 0 C0.71994141 -0.00386719 1.43988281 -0.00773438 2.18164062 -0.01171875 C5.36458639 -0.00580799 7.89697862 0.11149287 10.9375 1.125 C10.9375 2.445 10.9375 3.765 10.9375 5.125 C9.9475 4.795 8.9575 4.465 7.9375 4.125 C6.38483347 3.9785286 4.82754338 3.87805926 3.26953125 3.80859375 C2.37685547 3.76669922 1.48417969 3.72480469 0.56445312 3.68164062 C-0.36431641 3.64232422 -1.29308594 3.60300781 -2.25 3.5625 C-3.19037109 3.51931641 -4.13074219 3.47613281 -5.09960938 3.43164062 C-7.42042854 3.32561335 -9.74135325 3.22354971 -12.0625 3.125 C-12.0625 2.465 -12.0625 1.805 -12.0625 1.125 C-8.1090749 -0.1756046 -4.11149752 -0.02220431 0 0 Z " fill="#0A0104" transform="translate(368.0625,236.875)"/>
<path d="M0 0 C0.99 0.66 1.98 1.32 3 2 C2.47731534 4.76276177 1.89130413 7.3260876 1 10 C0.34 10 -0.32 10 -1 10 C-1.33 11.98 -1.66 13.96 -2 16 C-2.99 16.33 -3.98 16.66 -5 17 C-5.66 17.66 -6.32 18.32 -7 19 C-6.4253379 14.21357393 -5.01754357 10.46211213 -2.9375 6.125 C-2.38964844 4.97257812 -1.84179688 3.82015625 -1.27734375 2.6328125 C-0.85582031 1.76398438 -0.43429688 0.89515625 0 0 Z " fill="#120E0F" transform="translate(157,335)"/>
<path d="M0 0 C1 1.33333333 2 2.66666667 3 4 C3.556875 4.70125 4.11375 5.4025 4.6875 6.125 C6 8 6 8 6 10 C7.32 10.66 8.64 11.32 10 12 C9.34 13.32 8.68 14.64 8 16 C5.37812506 14.95125002 4.20628639 14.35068687 2.75 11.875 C2.5025 11.25625 2.255 10.6375 2 10 C1.01 10.33 0.02 10.66 -1 11 C-1.14285714 3.57142857 -1.14285714 3.57142857 0 0 Z " fill="#151014" transform="translate(257,218)"/>
<path d="M0 0 C0.33 0.66 0.66 1.32 1 2 C-0.98 3.32 -2.96 4.64 -5 6 C-3.68 5.67 -2.36 5.34 -1 5 C-0.67 6.32 -0.34 7.64 0 9 C-5.14002205 12.18191841 -5.14002205 12.18191841 -9.25 11.3125 C-12 10 -12 10 -14 8 C-9.38 5.36 -4.76 2.72 0 0 Z " fill="#191417" transform="translate(130,274)"/>
<path d="M0 0 C1.5 1.375 1.5 1.375 3 3 C3 3.66 3 4.32 3 5 C3.99 5.33 4.98 5.66 6 6 C6 6.66 6 7.32 6 8 C5.01 8.495 5.01 8.495 4 9 C4.66 9.66 5.32 10.32 6 11 C4.35 11 2.7 11 1 11 C1 10.34 1 9.68 1 9 C0.01 9 -0.98 9 -2 9 C-2 8.34 -2 7.68 -2 7 C-3.79236067 7.47656412 -5.58386897 7.95633498 -7.375 8.4375 C-8.37273437 8.70433594 -9.37046875 8.97117187 -10.3984375 9.24609375 C-12.95417701 9.90184356 -12.95417701 9.90184356 -15 11 C-15.99 10.34 -16.98 9.68 -18 9 C-11.73 7.35 -5.46 5.7 1 4 C0.67 2.68 0.34 1.36 0 0 Z " fill="#161016" transform="translate(122,254)"/>
<path d="M0 0 C0 0.33 0 0.66 0 1 C-0.721875 1.0825 -1.44375 1.165 -2.1875 1.25 C-5.16681464 1.83979139 -5.16681464 1.83979139 -7.625 4.125 C-8.40875 4.74375 -9.1925 5.3625 -10 6 C-10.99 5.67 -11.98 5.34 -13 5 C-12.67 5.99 -12.34 6.98 -12 8 C-14.15343189 11.23014784 -15.27059611 12.75686537 -19 14 C-17.20279769 8.2489526 -13.64800758 2.65500474 -8.5 -0.5625 C-5.43508263 -1.09886054 -3.01416612 -0.70096887 0 0 Z " fill="#261B24" transform="translate(169,11)"/>
<path d="M0 0 C0.33 0 0.66 0 1 0 C1.50567729 2.56149628 2.00470132 5.12399465 2.5 7.6875 C2.64308594 8.40873047 2.78617187 9.12996094 2.93359375 9.87304688 C3.65571887 13.63841359 4.1824976 17.14473813 4 21 C3.87625 20.071875 3.87625 20.071875 3.75 19.125 C3.20721701 16.84645565 3.20721701 16.84645565 1.125 15.9375 C0.42375 15.628125 -0.2775 15.31875 -1 15 C-2.8125 13.875 -2.8125 13.875 -4 12 C-3.94527524 9.23639953 -3.49366609 6.73760284 -3 4 C-2.34 4.33 -1.68 4.66 -1 5 C-0.67 3.35 -0.34 1.7 0 0 Z " fill="#161114" transform="translate(332,185)"/>
<path d="M0 0 C0.66 0.66 1.32 1.32 2 2 C1.67 2.99 1.34 3.98 1 5 C0.37411079 7.78172983 0 10.13726007 0 13 C-0.31088368 14.67099977 -0.64080332 16.33871537 -1 18 C-2.32 17.67 -3.64 17.34 -5 17 C-5.33 18.65 -5.66 20.3 -6 22 C-7.15699511 18.52901466 -6.82954442 17.85266875 -5.56640625 14.55078125 C-5.0878418 13.27944336 -5.0878418 13.27944336 -4.59960938 11.98242188 C-4.25736328 11.10134766 -3.91511719 10.22027344 -3.5625 9.3125 C-3.22412109 8.41982422 -2.88574219 7.52714844 -2.53710938 6.60742188 C-1.69962693 4.40165826 -0.85367026 2.19953824 0 0 Z " fill="#191314" transform="translate(118,419)"/>
<path d="M0 0 C0.33 0.66 0.66 1.32 1 2 C1.66 2 2.32 2 3 2 C2.40895235 6.84659077 1.02055843 10.60748167 -1 15 C-1.66 14.67 -2.32 14.34 -3 14 C-3.33 14.66 -3.66 15.32 -4 16 C-4.66 16 -5.32 16 -6 16 C-4.25192871 10.53262809 -2.34205919 5.24175152 0 0 Z " fill="#130D0F" transform="translate(141,41)"/>
<path d="M0 0 C1.92549027 3.85098054 1.0297851 8.90332392 0.9609375 13.171875 C0.91746877 17.5767064 1.10412981 21.66062878 2 26 C0.02 25.67 -1.96 25.34 -4 25 C-4 22.36 -4 19.72 -4 17 C-3.34 16.67 -2.68 16.34 -2 16 C-1.71371668 13.4736235 -1.53282808 11.03433175 -1.4375 8.5 C-1.11924736 1.11924736 -1.11924736 1.11924736 0 0 Z " fill="#1C181A" transform="translate(148,190)"/>
<path d="M0 0 C0.99 0 1.98 0 3 0 C3.66 1.32 4.32 2.64 5 4 C2 6 2 6 -1.5625 5.875 C-5 5 -5 5 -6.4375 2.9375 C-6.7159375 1.9784375 -6.7159375 1.9784375 -7 1 C-4.51193724 -0.24403138 -2.76023814 -0.06732288 0 0 Z " fill="#130D10" transform="translate(278,210)"/>
<path d="M0 0 C2 1.5625 2 1.5625 3 3 C2.67 3.66 2.34 4.32 2 5 C0.37247769 4.74476126 -1.25203196 4.47025506 -2.875 4.1875 C-3.77992188 4.03667969 -4.68484375 3.88585937 -5.6171875 3.73046875 C-8 3 -8 3 -10 0 C-6.76519849 -1.61740075 -3.40687492 -0.81514185 0 0 Z " fill="#0E070C" transform="translate(346,284)"/>
<path d="M0 0 C-1.485 1.485 -1.485 1.485 -3 3 C-2.01 3.99 -1.02 4.98 0 6 C-3.3 6.66 -6.6 7.32 -10 8 C-9.34 7.67 -8.68 7.34 -8 7 C-8.75150023 3.72226496 -8.75150023 3.72226496 -12 2 C-7.8803623 0.70756464 -4.33168317 -0.26252625 0 0 Z " fill="#1F1820" transform="translate(104,264)"/>
<path d="M0 0 C0 0.99 0 1.98 0 3 C0.66 3.66 1.32 4.32 2 5 C1.67 5.66 1.34 6.32 1 7 C1.33 7.99 1.66 8.98 2 10 C0.5625 12.1875 0.5625 12.1875 -1 14 C-2.59916885 11.40135062 -3.00099429 10.04872007 -2.9375 6.9375 C-2.70260336 3.98228216 -2.70260336 3.98228216 -4.5 2.125 C-4.995 1.75375 -5.49 1.3825 -6 1 C-4 0 -4 0 0 0 Z " fill="#110B0F" transform="translate(174,290)"/>
<path d="M0 0 C0.99 0.66 1.98 1.32 3 2 C2.67 3.32 2.34 4.64 2 6 C4.46459429 6 6.61370553 5.61187038 9 5 C9.33 4.34 9.66 3.68 10 3 C9.42655063 5.86724686 9.1385485 6.8614515 7 9 C4.6875 9.4375 4.6875 9.4375 2 9 C-0.8125 6.5 -0.8125 6.5 -3 4 C-2.67 3.01 -2.34 2.02 -2 1 C-1.67 1.33 -1.34 1.66 -1 2 C-0.67 1.34 -0.34 0.68 0 0 Z " fill="#191519" transform="translate(189,205)"/>
<path d="M0 0 C0.66 0.99 1.32 1.98 2 3 C1.34 3 0.68 3 0 3 C0.02320313 3.61488281 0.04640625 4.22976562 0.0703125 4.86328125 C0.08835938 5.67152344 0.10640625 6.47976562 0.125 7.3125 C0.14820313 8.11300781 0.17140625 8.91351563 0.1953125 9.73828125 C0 12 0 12 -2 15 C-3.32 14.67 -4.64 14.34 -6 14 C-4.50829734 9.0276578 -2.39542583 4.58154261 0 0 Z " fill="#191415" transform="translate(149,25)"/>
<path d="M0 0 C0.66 0.33 1.32 0.66 2 1 C1.67 3.31 1.34 5.62 1 8 C0.071875 7.979375 -0.85625 7.95875 -1.8125 7.9375 C-5.02286011 7.84230396 -5.02286011 7.84230396 -8 9 C-6.4169423 4.7257442 -3.49431596 2.73468206 0 0 Z " fill="#171115" transform="translate(287,16)"/>
<path d="M0 0 C2.87579981 4.31369972 4 7.80734761 4 13 C3.34 13 2.68 13 2 13 C1.67 13.66 1.34 14.32 1 15 C1 12 1 12 2 10 C1.67 9.34 1.34 8.68 1 8 C0.01 9.485 0.01 9.485 -1 11 C-3 9 -3 9 -3.125 6.375 C-3.08375 5.59125 -3.0425 4.8075 -3 4 C-2.01 4 -1.02 4 0 4 C0 2.68 0 1.36 0 0 Z " fill="#120E10" transform="translate(203,90)"/>
<path d="M0 0 C7.88264059 0.75794621 7.88264059 0.75794621 11 4 C11 4.99 11 5.98 11 7 C7.67895374 6.44649229 4.83755508 5.85908781 2 4 C0.75 1.875 0.75 1.875 0 0 Z " fill="#120C0F" transform="translate(353,290)"/>
<path d="M0 0 C0.66 0 1.32 0 2 0 C2.66 0.66 3.32 1.32 4 2 C4.99 2.33 5.98 2.66 7 3 C7 3.66 7 4.32 7 5 C6.34 5 5.68 5 5 5 C4.67 5.99 4.34 6.98 4 8 C4 7.34 4 6.68 4 6 C1.03 6 -1.94 6 -5 6 C-3.68 5.67 -2.36 5.34 -1 5 C-0.67 3.35 -0.34 1.7 0 0 Z " fill="#191517" transform="translate(305,184)"/>
<path d="M0 0 C0.33 0.99 0.66 1.98 1 3 C3.31 3 5.62 3 8 3 C8 3.99 8 4.98 8 6 C5.69 6.66 3.38 7.32 1 8 C0.67 7.34 0.34 6.68 0 6 C-0.66 6 -1.32 6 -2 6 C-1.34 4.02 -0.68 2.04 0 0 Z " fill="#100E10" transform="translate(210,120)"/>
<path d="M0 0 C0.515625 0.185625 1.03125 0.37125 1.5625 0.5625 C4.18680351 1.1778179 4.18680351 1.1778179 7.5625 0.375 C11 0 11 0 13 1.1875 C14 3 14 3 13.6875 5.1875 C13.3471875 6.0846875 13.3471875 6.0846875 13 7 C12.67 6.01 12.34 5.02 12 4 C8.37 3.67 4.74 3.34 1 3 C0.67 2.01 0.34 1.02 0 0 Z " fill="#151015" transform="translate(232,224)"/>
<path d="M0 0 C0.5534764 2.07553648 1 3.84365964 1 6 C0.34 6 -0.32 6 -1 6 C-0.67 8.31 -0.34 10.62 0 13 C-1.65 12.67 -3.3 12.34 -5 12 C-4.54738642 10.56068883 -4.08767021 9.12361001 -3.625 7.6875 C-3.24214844 6.48673828 -3.24214844 6.48673828 -2.8515625 5.26171875 C-2 3 -2 3 0 0 Z " fill="#1B1618" transform="translate(277,27)"/>
<path d="M0 0 C3 1 3 1 3.9375 2.8125 C4 5 4 5 2.0625 7.25 C1.381875 7.8275 0.70125 8.405 0 9 C-0.99 8.67 -1.98 8.34 -3 8 C-1.125 2.25 -1.125 2.25 0 0 Z " fill="#151112" transform="translate(147,359)"/>
<path d="M0 0 C0.33 0.99 0.66 1.98 1 3 C-0.65 3 -2.3 3 -4 3 C-4.33 3.99 -4.66 4.98 -5 6 C-5.66 5.67 -6.32 5.34 -7 5 C-7.33 5 -7.66 5 -8 5 C-8.99 4.67 -9.98 4.34 -11 4 C-7.26280719 0.48264206 -5.13496308 -0.47767098 0 0 Z " fill="#070206" transform="translate(135,276)"/>
<path d="M0 0 C4.31392226 0.4793247 6.16569547 1.7457985 9 5 C8.67 5.33 8.34 5.66 8 6 C6.47480724 5.91062197 4.95318071 5.75462854 3.4375 5.5625 C2.19806641 5.40974609 2.19806641 5.40974609 0.93359375 5.25390625 C0.29550781 5.17011719 -0.34257812 5.08632813 -1 5 C-0.01 4.67 0.98 4.34 2 4 C2 3.34 2 2.68 2 2 C1.34 1.34 0.68 0.68 0 0 Z " fill="#271C24" transform="translate(375,264)"/>
<path d="M0 0 C0.33 0.66 0.66 1.32 1 2 C5.455 1.505 5.455 1.505 10 1 C9.01 1.66 8.02 2.32 7 3 C8.65 3.33 10.3 3.66 12 4 C12 4.33 12 4.66 12 5 C8.37 5 4.74 5 1 5 C0.67 3.35 0.34 1.7 0 0 Z " fill="#1F1A1E" transform="translate(78,244)"/>
<path d="M0 0 C0.33 0 0.66 0 1 0 C1.0810206 2.10353495 1.13919907 4.20795952 1.1875 6.3125 C1.22230469 7.48425781 1.25710937 8.65601562 1.29296875 9.86328125 C1 13 1 13 -0.51171875 14.91796875 C-1.00285156 15.27503906 -1.49398437 15.63210937 -2 16 C-3.3805087 12.23331402 -2.59568159 9.55210827 -1.5625 5.75 C-1.27503906 4.67234375 -0.98757812 3.5946875 -0.69140625 2.484375 C-0.46324219 1.66453125 -0.23507813 0.8446875 0 0 Z " fill="#211C1F" transform="translate(118,105)"/>
<path d="M0 0 C0.68359375 1.640625 0.68359375 1.640625 1 4 C-0.21484375 6.796875 -0.21484375 6.796875 -1.9375 9.75 C-2.50339844 10.73484375 -3.06929687 11.7196875 -3.65234375 12.734375 C-4.09707031 13.48203125 -4.54179687 14.2296875 -5 15 C-4.34 15 -3.68 15 -3 15 C-3.33 15.66 -3.66 16.32 -4 17 C-4.99 16.67 -5.98 16.34 -7 16 C-5.35433477 10.31497465 -2.70967216 5.23318364 0 0 Z " fill="#1A1517" transform="translate(143,367)"/>
<path d="M0 0 C2.97 0.495 2.97 0.495 6 1 C6.33 1.99 6.66 2.98 7 4 C5.68 4 4.36 4 3 4 C3 4.66 3 5.32 3 6 C3.99 6 4.98 6 6 6 C6 6.66 6 7.32 6 8 C3.03 7.01 0.06 6.02 -3 5 C-1.68 4.34 -0.36 3.68 1 3 C1.33 2.67 1.66 2.34 2 2 C1.34 1.34 0.68 0.68 0 0 Z " fill="#261F25" transform="translate(346,284)"/>
<path d="M0 0 C0.33 0 0.66 0 1 0 C1 4.29 1 8.58 1 13 C-0.32 12.67 -1.64 12.34 -3 12 C-2.49202991 7.6822542 -1.80317221 3.96697886 0 0 Z " fill="#1D1719" transform="translate(267,51)"/>
<path d="M0 0 C1.14926266 0.95421808 2.29430541 1.91352045 3.4375 2.875 C4.07558594 3.40867188 4.71367187 3.94234375 5.37109375 4.4921875 C7 6 7 6 8 8 C7.34 8 6.68 8 6 8 C5.67 8.66 5.34 9.32 5 10 C0.07692308 5.69230769 0.07692308 5.69230769 -0.3125 2.1875 C-0.209375 1.465625 -0.10625 0.74375 0 0 Z " fill="#171214" transform="translate(153,221)"/>
<path d="M0 0 C2 3 2 3 1.625 5.6875 C1.41875 6.450625 1.2125 7.21375 1 8 C0.34 8 -0.32 8 -1 8 C-1.66 9.32 -2.32 10.64 -3 12 C-4 10 -4 10 -3.22265625 7.6171875 C-2.83980469 6.71226563 -2.45695312 5.80734375 -2.0625 4.875 C-1.68222656 3.96492188 -1.30195313 3.05484375 -0.91015625 2.1171875 C-0.60980469 1.41851562 -0.30945313 0.71984375 0 0 Z " fill="#151012" transform="translate(130,68)"/>
<path d="M0 0 C0.33 0 0.66 0 1 0 C1.33 2.97 1.66 5.94 2 9 C1.01 9.33 0.02 9.66 -1 10 C-2.1875 7.8125 -2.1875 7.8125 -3 5 C-1.6875 2.1875 -1.6875 2.1875 0 0 Z " fill="#130D0E" transform="translate(283,373)"/>
<path d="M0 0 C2.9719385 1.12451727 5.33440687 2.22293791 8 4 C8 4.66 8 5.32 8 6 C6.35 6 4.7 6 3 6 C3 6.33 3 6.66 3 7 C1.35 7 -0.3 7 -2 7 C-1.34 6.67 -0.68 6.34 0 6 C0 5.34 0 4.68 0 4 C0.66 3.67 1.32 3.34 2 3 C1.34 2.01 0.68 1.02 0 0 Z " fill="#171116" transform="translate(315,273)"/>
<path d="M0 0 C0.66 0.33 1.32 0.66 2 1 C1.01 1.66 0.02 2.32 -1 3 C0.32 4.32 1.64 5.64 3 7 C1.02 7.66 -0.96 8.32 -3 9 C-3 7.68 -3 6.36 -3 5 C-3.66 4.34 -4.32 3.68 -5 3 C-2.625 1.4375 -2.625 1.4375 0 0 Z " fill="#1F1A1E" transform="translate(110,285)"/>
<path d="M0 0 C-0.33 1.65 -0.66 3.3 -1 5 C-4.37503669 3.8141763 -6.64722731 2.72426311 -9 0 C-5.93109813 -1.53445094 -3.29905734 -0.54984289 0 0 Z " fill="#141014" transform="translate(158,281)"/>
<path d="M0 0 C0.33 0.66 0.66 1.32 1 2 C1.99 2.33 2.98 2.66 4 3 C3.319375 3.5878125 3.319375 3.5878125 2.625 4.1875 C0.72357081 6.30832487 -0.06204028 8.33042235 -1 11 C-2.55136786 8.53606281 -3.03039129 7.31910854 -2.75 4.375 C-2 2 -2 2 0 0 Z M-1 3 C-1.33 3.66 -1.66 4.32 -2 5 C-1.34 5 -0.68 5 0 5 C-0.33 4.34 -0.66 3.68 -1 3 Z " fill="#1A171A" transform="translate(331,242)"/>
<path d="M0 0 C0.33 0 0.66 0 1 0 C1.36463732 1.74784829 1.7163078 3.49840502 2.0625 5.25 C2.25972656 6.22453125 2.45695312 7.1990625 2.66015625 8.203125 C2.98397535 10.868119 2.85503199 12.48871723 2 15 C1.34 13.02 0.68 11.04 0 9 C-0.66 9 -1.32 9 -2 9 C-1.34 6.03 -0.68 3.06 0 0 Z " fill="#151314" transform="translate(331,106)"/>
<path d="M0 0 C-0.99 0.495 -0.99 0.495 -2 1 C-1.34 1.66 -0.68 2.32 0 3 C-4.625 5.125 -4.625 5.125 -8 4 C-8.33 3.34 -8.66 2.68 -9 2 C-3.375 -1.125 -3.375 -1.125 0 0 Z " fill="#161011" transform="translate(286,290)"/>
<path d="M0 0 C0.99 0.66 1.98 1.32 3 2 C2.67 3.98 2.34 5.96 2 8 C1.34 7.67 0.68 7.34 0 7 C-0.33 7.66 -0.66 8.32 -1 9 C-1.66 9 -2.32 9 -3 9 C-2.01 6.03 -1.02 3.06 0 0 Z " fill="#1B1516" transform="translate(138,48)"/>
<path d="M0 0 C2.39456443 2.39456443 2.75546876 3.65807308 3 7 C1.5625 8.8125 1.5625 8.8125 0 10 C0 9.34 0 8.68 0 8 C-0.66 7.67 -1.32 7.34 -2 7 C-1.34 4.69 -0.68 2.38 0 0 Z " fill="#130D0F" transform="translate(180,30)"/>
<path d="M0 0 C1.2065625 0.0309375 1.2065625 0.0309375 2.4375 0.0625 C1.7775 0.7225 1.1175 1.3825 0.4375 2.0625 C0.7675 2.7225 1.0975 3.3825 1.4375 4.0625 C0.4475 5.5475 0.4475 5.5475 -0.5625 7.0625 C-1.5525 6.7325 -2.5425 6.4025 -3.5625 6.0625 C-3.605221 4.39638095 -3.60313832 2.72867115 -3.5625 1.0625 C-2.5625 0.0625 -2.5625 0.0625 0 0 Z " fill="#0C090A" transform="translate(147.5625,183.9375)"/>
<path d="M0 0 C2.12508244 3.18762365 2.5020163 5.26512223 3 9 C1.0625 8.625 1.0625 8.625 -1 8 C-2 6 -2 6 -1.0625 2.875 C-0.5365625 1.451875 -0.5365625 1.451875 0 0 Z " fill="#151313" transform="translate(290,401)"/>
<path d="M0 0 C2.1385485 2.1385485 2.42655063 3.13275314 3 6 C1.68 6.99 0.36 7.98 -1 9 C-1.66 8.67 -2.32 8.34 -3 8 C-2.34 7.01 -1.68 6.02 -1 5 C-1.33 4.34 -1.66 3.68 -2 3 C-1.34 3 -0.68 3 0 3 C0 2.01 0 1.02 0 0 Z " fill="#100C0F" transform="translate(312,271)"/>
<path d="M0 0 C1.32 1.32 2.64 2.64 4 4 C3.01 5.485 3.01 5.485 2 7 C2.66 7.66 3.32 8.32 4 9 C2.68 8.67 1.36 8.34 0 8 C-0.98120464 4.94736336 -0.98120464 3.05263664 0 0 Z " fill="#090809" transform="translate(124,249)"/>
<path d="M0 0 C1.0625 1.8125 1.0625 1.8125 2 4 C1 7 1 7 -1 10 C-1.68177416 11.32567199 -2.35191436 12.65753688 -3 14 C-4 12 -4 12 -3.22265625 9.1796875 C-2.83980469 8.08914062 -2.45695313 6.99859375 -2.0625 5.875 C-1.68222656 4.77929688 -1.30195313 3.68359375 -0.91015625 2.5546875 C-0.60980469 1.71164063 -0.30945313 0.86859375 0 0 Z " fill="#201A1C" transform="translate(250,104)"/>
<path d="M0 0 C2.1991413 4.39828259 2.51855059 7.18550592 3 12 C2.34 11.34 1.68 10.68 1 10 C0.01 10.495 0.01 10.495 -1 11 C-0.67 7.37 -0.34 3.74 0 0 Z " fill="#181415" transform="translate(298,426)"/>
<path d="M0 0 C1.32 0 2.64 0 4 0 C4 0.66 4 1.32 4 2 C3.34 2 2.68 2 2 2 C2 3.32 2 4.64 2 6 C0.68 5.67 -0.64 5.34 -2 5 C-1.34 3.35 -0.68 1.7 0 0 Z " fill="#0F090C" transform="translate(96,293)"/>
<path d="M0 0 C0.33 0.66 0.66 1.32 1 2 C-0.98 3.32 -2.96 4.64 -5 6 C-4.67 6.66 -4.34 7.32 -4 8 C-6.97 7.505 -6.97 7.505 -10 7 C-7.2180632 3.72713318 -3.72045933 2.03572303 0 0 Z " fill="#291C25" transform="translate(130,274)"/>
<path d="M0 0 C2.31 0.66 4.62 1.32 7 2 C6.67 2.99 6.34 3.98 6 5 C1.25 4.25 1.25 4.25 -1 2 C-0.67 1.34 -0.34 0.68 0 0 Z " fill="#0B0206" transform="translate(371,263)"/>
<path d="M0 0 C0.78375 0.04125 1.5675 0.0825 2.375 0.125 C2.375 1.445 2.375 2.765 2.375 4.125 C1.385 4.455 0.395 4.785 -0.625 5.125 C-0.625 4.465 -0.625 3.805 -0.625 3.125 C-1.945 2.795 -3.265 2.465 -4.625 2.125 C-2.625 0.125 -2.625 0.125 0 0 Z " fill="#1D1718" transform="translate(212.625,187.875)"/>
<path d="M0 0 C2 4 2 4 1.625 6.25 C1.41875 6.8275 1.2125 7.405 1 8 C-0.32 8.33 -1.64 8.66 -3 9 C-2.01 6.03 -1.02 3.06 0 0 Z " fill="#150F10" transform="translate(162,323)"/>
<path d="M0 0 C-3.75 3 -3.75 3 -6 3 C-6 2.34 -6 1.68 -6 1 C-8.64 1 -11.28 1 -14 1 C-14 0.67 -14 0.34 -14 0 C-12.04235617 -0.19456705 -10.08384679 -0.38044247 -8.125 -0.5625 C-6.48917969 -0.71912109 -6.48917969 -0.71912109 -4.8203125 -0.87890625 C-2 -1 -2 -1 0 0 Z " fill="#0C080C" transform="translate(294,235)"/>
<path d="M0 0 C0.66 1.32 1.32 2.64 2 4 C-1 6 -1 6 -3.1875 5.625 C-3.785625 5.41875 -4.38375 5.2125 -5 5 C-4.34 5 -3.68 5 -3 5 C-3.33 4.01 -3.66 3.02 -4 2 C-2.68 1.34 -1.36 0.68 0 0 Z " fill="#1F1B1D" transform="translate(281,210)"/>
<path d="M0 0 C0.804375 0.4640625 0.804375 0.4640625 1.625 0.9375 C4.3984957 2.17827439 7.00042837 2.5909675 10 3 C10 3.33 10 3.66 10 4 C6.7 4.33 3.4 4.66 0 5 C0 4.34 0 3.68 0 3 C-0.66 2.67 -1.32 2.34 -2 2 C-1.34 2 -0.68 2 0 2 C0 1.34 0 0.68 0 0 Z " fill="#181215" transform="translate(197,186)"/>
<path d="M0 0 C1.99097846 2.98646769 2.94124926 5.59687262 4 9 C2.68 9.33 1.36 9.66 0 10 C0 6.7 0 3.4 0 0 Z " fill="#1D1518" transform="translate(308,29)"/>
<path d="M0 0 C1.9451 2.91765 2.45276317 4.62537285 3 8 C1.68 8.33 0.36 8.66 -1 9 C-0.67 6.03 -0.34 3.06 0 0 Z " fill="#141112" transform="translate(293,410)"/>
<path d="M0 0 C0.66 0.33 1.32 0.66 2 1 C0.68 1.33 -0.64 1.66 -2 2 C-1.01 2.33 -0.02 2.66 1 3 C1 3.66 1 4.32 1 5 C1.99 5.33 2.98 5.66 4 6 C2.02 6 0.04 6 -2 6 C-2.33 4.35 -2.66 2.7 -3 1 C-2.01 0.67 -1.02 0.34 0 0 Z " fill="#221B22" transform="translate(84,268)"/>
<path d="M0 0 C0.33 1.32 0.66 2.64 1 4 C1.33 4.99 1.66 5.98 2 7 C1.01 8.485 1.01 8.485 0 10 C-0.66 9.67 -1.32 9.34 -2 9 C-1.34 6.03 -0.68 3.06 0 0 Z " fill="#141013" transform="translate(170,301)"/>
<path d="M0 0 C1.32 0.66 2.64 1.32 4 2 C3.67 3.65 3.34 5.3 3 7 C1.02 5.35 -0.96 3.7 -3 2 C-2.01 1.34 -1.02 0.68 0 0 Z " fill="#121114" transform="translate(132,264)"/>
<path d="M0 0 C0.66 0 1.32 0 2 0 C1.67 2.64 1.34 5.28 1 8 C0.34 8 -0.32 8 -1 8 C-1.04241723 5.66705225 -1.04092937 3.33297433 -1 1 C-0.67 0.67 -0.34 0.34 0 0 Z " fill="#080307" transform="translate(114,136)"/>
<path d="M0 0 C0.66 0.33 1.32 0.66 2 1 C-1.625 5.875 -1.625 5.875 -5 7 C-3.75023244 3.34683329 -3.32901247 2.21934164 0 0 Z " fill="#1A1416" transform="translate(155,18)"/>
<path d="M0 0 C0.66 0.33 1.32 0.66 2 1 C1.67 2.65 1.34 4.3 1 6 C-2 5 -2 5 -4 3 C-2.68 2.01 -1.36 1.02 0 0 Z " fill="#080306" transform="translate(112,285)"/>
<path d="M0 0 C2.31 0.33 4.62 0.66 7 1 C3.55549263 3.29633824 1.06187717 3.54016485 -3 4 C-2.34 3.67 -1.68 3.34 -1 3 C-0.67 2.01 -0.34 1.02 0 0 Z " fill="#261E24" transform="translate(97,268)"/>
<path d="M0 0 C-1.5967195 0.72496458 -3.20272608 1.42950397 -4.8125 2.125 C-5.70582031 2.51945312 -6.59914063 2.91390625 -7.51953125 3.3203125 C-8.33808594 3.54460937 -9.15664062 3.76890625 -10 4 C-10.99 3.34 -11.98 2.68 -13 2 C-11.39935157 1.46845258 -9.79431126 0.95011647 -8.1875 0.4375 C-7.29417969 0.14746094 -6.40085937 -0.14257812 -5.48046875 -0.44140625 C-3 -1 -3 -1 0 0 Z " fill="#2E262E" transform="translate(117,261)"/>
<path d="M0 0 C0.33 0.99 0.66 1.98 1 3 C-0.1875 4.5 -0.1875 4.5 -2 6 C-4.6875 6.1875 -4.6875 6.1875 -7 6 C-5.1875 4 -5.1875 4 -3 2 C-2.01 2 -1.02 2 0 2 C0 1.34 0 0.68 0 0 Z " fill="#2D2929" transform="translate(198,208)"/>
<path d="M0 0 C2.475 0.99 2.475 0.99 5 2 C3.71034824 3.37562854 2.37310707 4.70766393 1 6 C0.34 6 -0.32 6 -1 6 C-0.67 4.02 -0.34 2.04 0 0 Z " fill="#140E10" transform="translate(122,90)"/>
<path d="M0 0 C0.99 0.33 1.98 0.66 3 1 C3 2.32 3 3.64 3 5 C1.02 4.34 -0.96 3.68 -3 3 C-2.01 2.01 -1.02 1.02 0 0 Z " fill="#190F1A" transform="translate(146,276)"/>
<path d="M0 0 C0.99 0 1.98 0 3 0 C3.33 0.99 3.66 1.98 4 3 C3.67 3.66 3.34 4.32 3 5 C0.9375 5.625 0.9375 5.625 -1 6 C-0.67 4.02 -0.34 2.04 0 0 Z " fill="#191517" transform="translate(187,189)"/>
</svg>
